# xmcd CD database file
#
# Track frame offsets:
#	182
#	14520
#	25625
#	37717
#	50375
#	61942
#	72690
#	83615
#	94522
#	104875
#	118025
#	128430
#	140600
#	150400
#	162225
#
# Disc length: 2289 seconds
#
# Revision: 1
# Processed by: cddbd v1.5.1PL0 Copyright (c) Steve Scherf et al.
# Submitted via: CDex 1.51
#
DISCID=ba08ef0f
DTITLE=Freddy Fender - Wasted Days And Wasted Nights
DYEAR=1900
DGENRE=Country
TTITLE0=Wasted Days And Wasted Nights
TTITLE1=The Rains Came
TTITLE2=You'll Lose A Good Thing
TTITLE3=Almost Persuaded
TTITLE4=I'm Leaving It Up To You
TTITLE5=A Man Can Cry
TTITLE6=Wild Side Of Life
TTITLE7=She's About A Mover
TTITLE8=Crazy Baby
TTITLE9=The Girl Who Waits On Tables
TTITLE10=Before The Next Teardrop Falls
TTITLE11=Lovin' Cajun Style
TTITLE12=But I Do
TTITLE13=Sweet Summer Days
TTITLE14=Running Back
EXTD=
EXTT0=
EXTT1=
EXTT2=
EXTT3=
EXTT4=
EXTT5=
EXTT6=
EXTT7=
EXTT8=
EXTT9=
EXTT10=
EXTT11=
EXTT12=
EXTT13=
EXTT14=
PLAYORDER=
